<?xml version="1.0" encoding="UTF-8" standalone="no"?>
<svg width="28px" height="31px" viewBox="0 0 28 31" version="1.1" xmlns="http://www.w3.org/2000/svg" xmlns:xlink="http://www.w3.org/1999/xlink" xmlns:sketch="http://www.bohemiancoding.com/sketch/ns">
    <title>Slice 1</title>
    <description>Created with Sketch (http://www.bohemiancoding.com/sketch)</description>
    <defs></defs>
    <g id="Page-1" stroke="none" stroke-width="1" fill="none" fill-rule="evenodd" sketch:type="MSPage">
        <path d="M27.1790988,22.9342895 C24.9279278,20.5962368 24.4376383,17.1364737 23.9632567,13.7909211 C23.2600462,8.83214474 22.4670988,3.25907895 15.398283,2.52976316 L15.398283,1.63157895 C15.398283,0.730539474 14.6677435,0 13.7667041,0 C12.8656646,0 12.1351251,0.730539474 12.1351251,1.63157895 L12.1351251,2.53098684 C5.12463828,3.26519737 4.33821723,8.83622368 3.64112513,13.7925526 C3.1704146,17.1393289 2.68379618,20.5999079 0.451388284,22.9391842 C0.000664599311,23.4115263 -0.125374874,24.1069868 0.13159881,24.7074079 C0.388572494,25.3082368 0.978796178,25.6973684 1.63183565,25.6973684 L8.46733565,25.6973684 C8.50404618,28.58975 10.8653488,30.9322895 13.7667041,30.9322895 C16.6680593,30.9322895 19.0289541,28.58975 19.0660725,25.6973684 L26.0035462,25.6973684 C26.6578093,25.6973684 27.2488488,25.3066053 27.5050067,24.7041447 C27.7611646,24.1025 27.6326778,23.4058158 27.1790988,22.9342895 L27.1790988,22.9342895 Z M13.7667041,27.6691316 C12.6653883,27.6691316 11.7704672,26.7901184 11.7341646,25.6973684 L13.7667041,25.6973684 L15.7992435,25.6973684 C15.7629409,26.7901184 14.8680199,27.6691316 13.7667041,27.6691316 L13.7667041,27.6691316 Z M13.7667041,22.4342105 L4.75753302,22.4342105 C6.08563828,19.8444868 6.49720407,16.9166184 6.87287513,14.2469474 C7.68336197,8.48176316 8.31478302,5.71052632 13.7667041,5.71052632 C19.277362,5.71052632 19.9149014,8.48217105 20.7327304,14.2489868 C21.1112567,16.9174342 21.5256778,19.8448947 22.8639804,22.4342105 L13.7667041,22.4342105 L13.7667041,22.4342105 Z" id="Shape" fill="#FFFFFF" sketch:type="MSShapeGroup"></path>
    </g>
</svg>